<svg width="266" height="236" viewBox="0 0 266 236" fill="none" xmlns="http://www.w3.org/2000/svg">
<path d="M15 230.692L6.6875 221L1 235L15 230.692Z" fill="#F2C94C"/>
<path d="M213.328 18.3773L21.3281 185.377M221.328 25.3773L29.3281 192.377M229.328 34.3773L37.3281 201.377M237.328 43.3773L45.3281 210.377M245.33 51.3756L55.3301 218.376M21.461 185.194L0.460996 235.194M55.1477 218.478L0.147659 235.478M213.359 17.6519L245.359 50.6519M217.359 13.6519L249.359 46.6519M233.359 0.651932L265.359 33.6519M233.324 1.38097L213.324 18.381M265.324 34.381L245.324 51.381M6.6875 221L15 230.692L1 235L6.6875 221Z" stroke="black"/>
<rect x="219" y="14.9406" width="20" height="45.4357" transform="rotate(-44.189 219 14.9406)" fill="#F8BDFA" fill-opacity="0.51"/>
</svg>
